<?xml version="1.0" standalone="no"?>
<!DOCTYPE svg PUBLIC "-//W3C//DTD SVG 20010904//EN"
 "http://www.w3.org/TR/2001/REC-SVG-20010904/DTD/svg10.dtd">
<svg version="1.0" xmlns="http://www.w3.org/2000/svg"
 width="237.000000pt" height="213.000000pt" viewBox="0 0 237.000000 213.000000"
 preserveAspectRatio="xMidYMid meet">

<g transform="translate(0.000000,213.000000) scale(0.100000,-0.100000)"
fill="#000000" stroke="none">
<path d="M1001 1970 c-335 -47 -614 -303 -697 -640 -25 -102 -25 -278 0 -380
82 -331 344 -578 677 -636 102 -18 234 -14 324 8 l50 13 3 137 3 136 -53 -20
c-38 -15 -85 -22 -165 -26 -101 -4 -121 -2 -195 21 -196 62 -343 217 -394 418
-23 90 -15 252 16 334 48 125 123 220 230 290 110 72 175 90 320 90 101 0 136
-4 183 -21 l58 -21 -3 136 -3 136 -50 12 c-68 17 -226 24 -304 13z"/>
<path d="M1062 1488 c-238 -35 -366 -302 -250 -521 36 -67 90 -115 171 -152
46 -22 71 -26 138 -26 69 0 91 5 144 30 73 34 135 94 173 166 24 44 27 61 27
150 0 87 -3 107 -26 156 -66 141 -218 220 -377 197z"/>
<path d="M1592 1493 c2 -4 22 -46 45 -93 47 -97 63 -162 63 -260 0 -98 -16
-163 -63 -260 -23 -47 -43 -89 -45 -93 -2 -4 61 -6 140 -5 l143 3 17 36 c10
19 27 71 39 115 42 155 24 395 -39 523 l-17 36 -143 3 c-79 1 -142 -1 -140 -5z"/>
</g>
</svg>
